<svg width="70" height="95" viewBox="0 0 70 95" fill="none" xmlns="http://www.w3.org/2000/svg">
<g clip-path="url(#clip0_132_13)">
<path d="M69.4225 4.31029V90.7055C69.4225 93.0896 67.4963 95.0158 65.1122 95.0158H4.31029C1.92621 95 0 93.0738 0 90.7055V4.31029C0 1.92621 1.92621 0 4.31029 0H65.128C67.4963 0 69.4225 1.92621 69.4225 4.31029Z" fill="url(#paint0_linear_132_13)"/>
<path d="M65 7.94666V87.0533C65 89.2363 63.3075 91 61.2126 91H7.78735C5.69252 90.9855 4 89.2218 4 87.0533V7.94666C4 5.76371 5.69252 4 7.78735 4H61.2265C63.3075 4 65 5.76371 65 7.94666Z" fill="url(#paint1_linear_132_13)"/>
<path d="M26.8721 18.2516V22.183C26.8721 22.4672 26.6511 22.6882 26.3669 22.6882H21.5513C21.2671 22.6882 21.0461 22.9093 21.0461 23.1935V28.009C21.0461 28.2932 20.8251 28.5142 20.5409 28.5142H16.6095C16.3253 28.5142 16.1043 28.2932 16.1043 28.009V23.1935C16.1043 22.9093 15.8832 22.6882 15.599 22.6882H10.7993C10.5151 22.6882 10.2941 22.4672 10.2941 22.183V18.2516C10.2941 17.9674 10.5151 17.7464 10.7993 17.7464H15.6148C15.899 17.7464 16.1201 17.5254 16.1201 17.2412V12.4256C16.1201 12.1415 16.3411 11.9204 16.6253 11.9204H20.5567C20.8409 11.9204 21.0619 12.1415 21.0619 12.4256V17.2412C21.0619 17.5254 21.2829 17.7464 21.5671 17.7464H26.3669C26.6511 17.7464 26.8721 17.9674 26.8721 18.2516Z" fill="url(#paint2_linear_132_13)"/>
<path opacity="0.5" d="M58.5756 39.6768H10.8467C10.5309 39.6768 10.2783 39.4242 10.2783 39.1084V37.2927C10.2783 36.9769 10.5309 36.7243 10.8467 36.7243H58.5756C58.8914 36.7243 59.144 36.9769 59.144 37.2927V39.1084C59.1282 39.4242 58.8914 39.6768 58.5756 39.6768Z" fill="url(#paint3_linear_132_13)"/>
<path d="M58.5756 17.0517H34.8927C34.577 17.0517 34.3243 16.7991 34.3243 16.4833V14.6834C34.3243 14.3677 34.577 14.1151 34.8927 14.1151H58.5756C58.8914 14.1151 59.144 14.3677 59.144 14.6834V16.4991C59.1282 16.7991 58.8914 17.0517 58.5756 17.0517Z" fill="url(#paint4_linear_132_13)"/>
<path opacity="0.5" d="M51.5655 24.725H34.8927C34.577 24.725 34.3243 24.4724 34.3243 24.1566V22.3409C34.3243 22.0251 34.577 21.7725 34.8927 21.7725H51.5655C51.8813 21.7725 52.1339 22.0251 52.1339 22.3409V24.1566C52.1181 24.4724 51.8813 24.725 51.5655 24.725Z" fill="url(#paint5_linear_132_13)"/>
<path opacity="0.5" d="M58.5756 48.2973H10.8467C10.5309 48.2973 10.2783 48.0447 10.2783 47.7289V45.9132C10.2783 45.5975 10.5309 45.3448 10.8467 45.3448H58.5756C58.8914 45.3448 59.144 45.5975 59.144 45.9132V47.7289C59.1282 48.0447 58.8914 48.2973 58.5756 48.2973Z" fill="url(#paint6_linear_132_13)"/>
<path opacity="0.5" d="M58.5756 56.9179H10.8467C10.5309 56.9179 10.2783 56.6653 10.2783 56.3495V54.5338C10.2783 54.2181 10.5309 53.9655 10.8467 53.9655H58.5756C58.8914 53.9655 59.144 54.2181 59.144 54.5338V56.3653C59.1282 56.6653 58.8914 56.9179 58.5756 56.9179Z" fill="url(#paint7_linear_132_13)"/>
<path opacity="0.5" d="M58.5756 65.5543H10.8467C10.5309 65.5543 10.2783 65.3017 10.2783 64.9859V63.1702C10.2783 62.8544 10.5309 62.6018 10.8467 62.6018H58.5756C58.8914 62.6018 59.144 62.8544 59.144 63.1702V64.9859C59.1282 65.3017 58.8914 65.5543 58.5756 65.5543Z" fill="url(#paint8_linear_132_13)"/>
<path opacity="0.5" d="M58.5756 74.1749H10.8467C10.5309 74.1749 10.2783 73.9223 10.2783 73.6065V71.7908C10.2783 71.475 10.5309 71.2224 10.8467 71.2224H58.5756C58.8914 71.2224 59.144 71.475 59.144 71.7908V73.6065C59.1282 73.9223 58.8914 74.1749 58.5756 74.1749Z" fill="url(#paint9_linear_132_13)"/>
<path opacity="0.5" d="M58.5756 82.7954H10.8467C10.5309 82.7954 10.2783 82.5428 10.2783 82.227V80.4113C10.2783 80.0956 10.5309 79.843 10.8467 79.843H58.5756C58.8914 79.843 59.144 80.0956 59.144 80.4113V82.227C59.1282 82.5428 58.8914 82.7954 58.5756 82.7954Z" fill="url(#paint10_linear_132_13)"/>
<path opacity="0.1" d="M69.4225 4.31029V90.7055C69.4225 93.0896 67.4963 95.0158 65.1122 95.0158H4.31029C1.92621 95 0 93.0738 0 90.7055V89.2056C37.0874 73.8906 54.3601 15.1571 58.2599 0H65.1122C67.4963 0 69.4225 1.92621 69.4225 4.31029Z" fill="#1A6FB5" fill-opacity="0.4"/>
</g>
<defs>
<linearGradient id="paint0_linear_132_13" x1="95" y1="126" x2="-6" y2="-5.5" gradientUnits="userSpaceOnUse">
<stop offset="0.3061" stop-color="#5BA7FC"/>
<stop offset="1" stop-color="#69B8FC"/>
</linearGradient>
<linearGradient id="paint1_linear_132_13" x1="8.6241" y1="7.04564" x2="57.9385" y2="78.0313" gradientUnits="userSpaceOnUse">
<stop offset="0.3061" stop-color="white"/>
<stop offset="1" stop-color="white"/>
</linearGradient>
<linearGradient id="paint2_linear_132_13" x1="9.99991" y1="9.50003" x2="24.9999" y2="34" gradientUnits="userSpaceOnUse">
<stop stop-color="#B0F4FF"/>
<stop offset="0.368525" stop-color="#80E4FD"/>
<stop offset="1" stop-color="#6CDDFC"/>
</linearGradient>
<linearGradient id="paint3_linear_132_13" x1="10.2905" y1="38.2072" x2="59.1354" y2="38.2072" gradientUnits="userSpaceOnUse">
<stop stop-color="#6CBCFC"/>
<stop offset="1" stop-color="#458DFC"/>
</linearGradient>
<linearGradient id="paint4_linear_132_13" x1="34.3248" y1="15.5845" x2="59.1354" y2="15.5845" gradientUnits="userSpaceOnUse">
<stop stop-color="#6CBCFC"/>
<stop offset="1" stop-color="#458DFC"/>
</linearGradient>
<linearGradient id="paint5_linear_132_13" x1="34.3248" y1="23.2616" x2="52.1255" y2="23.2616" gradientUnits="userSpaceOnUse">
<stop stop-color="#6CBCFC"/>
<stop offset="1" stop-color="#458DFC"/>
</linearGradient>
<linearGradient id="paint6_linear_132_13" x1="10.2905" y1="46.8317" x2="59.1354" y2="46.8317" gradientUnits="userSpaceOnUse">
<stop stop-color="#6CBCFC"/>
<stop offset="1" stop-color="#458DFC"/>
</linearGradient>
<linearGradient id="paint7_linear_132_13" x1="10.2905" y1="55.4562" x2="59.1354" y2="55.4562" gradientUnits="userSpaceOnUse">
<stop stop-color="#6CBCFC"/>
<stop offset="1" stop-color="#458DFC"/>
</linearGradient>
<linearGradient id="paint8_linear_132_13" x1="10.2905" y1="64.0807" x2="59.1354" y2="64.0807" gradientUnits="userSpaceOnUse">
<stop stop-color="#6CBCFC"/>
<stop offset="1" stop-color="#458DFC"/>
</linearGradient>
<linearGradient id="paint9_linear_132_13" x1="10.2905" y1="72.7052" x2="59.1354" y2="72.7052" gradientUnits="userSpaceOnUse">
<stop stop-color="#6CBCFC"/>
<stop offset="1" stop-color="#458DFC"/>
</linearGradient>
<linearGradient id="paint10_linear_132_13" x1="10.2905" y1="81.3296" x2="59.1354" y2="81.3296" gradientUnits="userSpaceOnUse">
<stop stop-color="#6CBCFC"/>
<stop offset="1" stop-color="#458DFC"/>
</linearGradient>
<clipPath id="clip0_132_13">
<rect width="69.4225" height="95" fill="white"/>
</clipPath>
</defs>
</svg>
